<mxfile host="Electron" modified="2023-12-22T14:29:19.677Z" agent="Mozilla/5.0 (Windows NT 10.0; Win64; x64) AppleWebKit/537.36 (KHTML, like Gecko) draw.io/22.0.0 Chrome/114.0.5735.289 Electron/25.8.3 Safari/537.36" etag="ApCrW0D-K48VV9xFM7Jf" version="22.0.0" type="device">
  <diagram name="Страница — 1" id="kP5PlZxaw1a1sDu8tycv">
    <mxGraphModel dx="2228" dy="1328" grid="1" gridSize="10" guides="1" tooltips="1" connect="1" arrows="1" fold="1" page="1" pageScale="1" pageWidth="827" pageHeight="1169" math="0" shadow="0">
      <root>
        <mxCell id="0" />
        <mxCell id="1" parent="0" />
        <mxCell id="xqILQ0OCF1nFSQp99obz-2" value="&lt;font style=&quot;font-size: 28px;&quot;&gt;Приложение&lt;/font&gt;" style="rounded=0;whiteSpace=wrap;html=1;" vertex="1" parent="1">
          <mxGeometry x="310" y="500" width="180" height="60" as="geometry" />
        </mxCell>
        <mxCell id="xqILQ0OCF1nFSQp99obz-4" value="Содержит" style="rhombus;whiteSpace=wrap;html=1;" vertex="1" parent="1">
          <mxGeometry x="360" y="360" width="80" height="80" as="geometry" />
        </mxCell>
        <mxCell id="xqILQ0OCF1nFSQp99obz-7" value="" style="endArrow=classic;html=1;rounded=0;exitX=0.5;exitY=0;exitDx=0;exitDy=0;entryX=0.5;entryY=1;entryDx=0;entryDy=0;" edge="1" parent="1" source="xqILQ0OCF1nFSQp99obz-2" target="xqILQ0OCF1nFSQp99obz-4">
          <mxGeometry width="50" height="50" relative="1" as="geometry">
            <mxPoint x="370" y="470" as="sourcePoint" />
            <mxPoint x="420" y="420" as="targetPoint" />
          </mxGeometry>
        </mxCell>
        <mxCell id="xqILQ0OCF1nFSQp99obz-8" value="" style="endArrow=classic;html=1;rounded=0;exitX=0.5;exitY=0;exitDx=0;exitDy=0;" edge="1" parent="1" source="xqILQ0OCF1nFSQp99obz-4">
          <mxGeometry width="50" height="50" relative="1" as="geometry">
            <mxPoint x="210" y="370" as="sourcePoint" />
            <mxPoint x="400" y="300" as="targetPoint" />
          </mxGeometry>
        </mxCell>
        <mxCell id="xqILQ0OCF1nFSQp99obz-9" value="&lt;font style=&quot;font-size: 28px;&quot;&gt;Категория учёба&lt;/font&gt;" style="rounded=0;whiteSpace=wrap;html=1;" vertex="1" parent="1">
          <mxGeometry x="316" y="230" width="168" height="70" as="geometry" />
        </mxCell>
        <mxCell id="xqILQ0OCF1nFSQp99obz-10" value="" style="endArrow=none;html=1;rounded=0;exitX=0.5;exitY=0;exitDx=0;exitDy=0;" edge="1" parent="1" source="xqILQ0OCF1nFSQp99obz-9">
          <mxGeometry width="50" height="50" relative="1" as="geometry">
            <mxPoint x="350" y="220" as="sourcePoint" />
            <mxPoint x="400" y="80" as="targetPoint" />
          </mxGeometry>
        </mxCell>
        <mxCell id="xqILQ0OCF1nFSQp99obz-11" value="" style="endArrow=none;html=1;rounded=0;" edge="1" parent="1">
          <mxGeometry width="50" height="50" relative="1" as="geometry">
            <mxPoint x="360" y="80" as="sourcePoint" />
            <mxPoint x="400" y="80" as="targetPoint" />
          </mxGeometry>
        </mxCell>
        <mxCell id="xqILQ0OCF1nFSQp99obz-12" value="Name(Название цели)" style="ellipse;whiteSpace=wrap;html=1;" vertex="1" parent="1">
          <mxGeometry x="250" y="50" width="110" height="60" as="geometry" />
        </mxCell>
        <mxCell id="xqILQ0OCF1nFSQp99obz-19" value="" style="endArrow=none;html=1;rounded=0;" edge="1" parent="1" target="xqILQ0OCF1nFSQp99obz-20">
          <mxGeometry width="50" height="50" relative="1" as="geometry">
            <mxPoint x="400" y="80" as="sourcePoint" />
            <mxPoint x="450" y="80" as="targetPoint" />
          </mxGeometry>
        </mxCell>
        <mxCell id="xqILQ0OCF1nFSQp99obz-20" value="description(Описание цели)" style="ellipse;whiteSpace=wrap;html=1;" vertex="1" parent="1">
          <mxGeometry x="440" y="47.5" width="130" height="65" as="geometry" />
        </mxCell>
        <mxCell id="xqILQ0OCF1nFSQp99obz-21" value="date(Конечный срок выполнения)" style="ellipse;whiteSpace=wrap;html=1;" vertex="1" parent="1">
          <mxGeometry x="240" y="130" width="120" height="60" as="geometry" />
        </mxCell>
        <mxCell id="xqILQ0OCF1nFSQp99obz-22" value="" style="endArrow=none;html=1;rounded=0;exitX=1;exitY=0.5;exitDx=0;exitDy=0;" edge="1" parent="1" source="xqILQ0OCF1nFSQp99obz-21">
          <mxGeometry width="50" height="50" relative="1" as="geometry">
            <mxPoint x="380" y="180" as="sourcePoint" />
            <mxPoint x="400" y="160" as="targetPoint" />
          </mxGeometry>
        </mxCell>
        <mxCell id="xqILQ0OCF1nFSQp99obz-23" value="achieved(Достигнута цель или нет )" style="ellipse;whiteSpace=wrap;html=1;" vertex="1" parent="1">
          <mxGeometry x="440" y="125" width="120" height="70" as="geometry" />
        </mxCell>
        <mxCell id="xqILQ0OCF1nFSQp99obz-24" value="" style="endArrow=none;html=1;rounded=0;entryX=0;entryY=0.5;entryDx=0;entryDy=0;" edge="1" parent="1" target="xqILQ0OCF1nFSQp99obz-23">
          <mxGeometry width="50" height="50" relative="1" as="geometry">
            <mxPoint x="400" y="160" as="sourcePoint" />
            <mxPoint x="430" y="140" as="targetPoint" />
          </mxGeometry>
        </mxCell>
        <mxCell id="xqILQ0OCF1nFSQp99obz-25" value="Содержит" style="rhombus;whiteSpace=wrap;html=1;" vertex="1" parent="1">
          <mxGeometry x="360" y="600" width="80" height="80" as="geometry" />
        </mxCell>
        <mxCell id="xqILQ0OCF1nFSQp99obz-27" value="&lt;font style=&quot;font-size: 28px;&quot;&gt;Категория работа&lt;br&gt;&lt;/font&gt;" style="rounded=0;whiteSpace=wrap;html=1;" vertex="1" parent="1">
          <mxGeometry x="316" y="720" width="168" height="70" as="geometry" />
        </mxCell>
        <mxCell id="xqILQ0OCF1nFSQp99obz-30" value="Name(Название цели)" style="ellipse;whiteSpace=wrap;html=1;" vertex="1" parent="1">
          <mxGeometry x="245" y="930" width="110" height="60" as="geometry" />
        </mxCell>
        <mxCell id="xqILQ0OCF1nFSQp99obz-32" value="description(Описание цели)" style="ellipse;whiteSpace=wrap;html=1;" vertex="1" parent="1">
          <mxGeometry x="445" y="927.5" width="130" height="65" as="geometry" />
        </mxCell>
        <mxCell id="xqILQ0OCF1nFSQp99obz-33" value="date(Конечный срок выполнения)" style="ellipse;whiteSpace=wrap;html=1;" vertex="1" parent="1">
          <mxGeometry x="235" y="820" width="120" height="60" as="geometry" />
        </mxCell>
        <mxCell id="xqILQ0OCF1nFSQp99obz-35" value="achieved(Достигнута цель или нет )" style="ellipse;whiteSpace=wrap;html=1;" vertex="1" parent="1">
          <mxGeometry x="445" y="815" width="120" height="70" as="geometry" />
        </mxCell>
        <mxCell id="xqILQ0OCF1nFSQp99obz-37" value="Содержит" style="rhombus;whiteSpace=wrap;html=1;" vertex="1" parent="1">
          <mxGeometry x="570" y="490" width="80" height="80" as="geometry" />
        </mxCell>
        <mxCell id="xqILQ0OCF1nFSQp99obz-38" value="&lt;font style=&quot;font-size: 28px;&quot;&gt;Категория учёба&lt;/font&gt;" style="rounded=0;whiteSpace=wrap;html=1;" vertex="1" parent="1">
          <mxGeometry x="720" y="495" width="168" height="70" as="geometry" />
        </mxCell>
        <mxCell id="xqILQ0OCF1nFSQp99obz-39" value="Name(Название цели)" style="ellipse;whiteSpace=wrap;html=1;" vertex="1" parent="1">
          <mxGeometry x="1065" y="602.5" width="110" height="60" as="geometry" />
        </mxCell>
        <mxCell id="xqILQ0OCF1nFSQp99obz-40" value="description(Описание цели)" style="ellipse;whiteSpace=wrap;html=1;" vertex="1" parent="1">
          <mxGeometry x="895" y="600" width="130" height="65" as="geometry" />
        </mxCell>
        <mxCell id="xqILQ0OCF1nFSQp99obz-41" value="date(Конечный срок выполнения)" style="ellipse;whiteSpace=wrap;html=1;" vertex="1" parent="1">
          <mxGeometry x="1060" y="370" width="120" height="60" as="geometry" />
        </mxCell>
        <mxCell id="xqILQ0OCF1nFSQp99obz-42" value="achieved(Достигнута цель или нет )" style="ellipse;whiteSpace=wrap;html=1;" vertex="1" parent="1">
          <mxGeometry x="900" y="370" width="120" height="70" as="geometry" />
        </mxCell>
        <mxCell id="xqILQ0OCF1nFSQp99obz-44" value="" style="endArrow=classic;html=1;rounded=0;exitX=0.497;exitY=1.033;exitDx=0;exitDy=0;exitPerimeter=0;entryX=0.5;entryY=0;entryDx=0;entryDy=0;" edge="1" parent="1" source="xqILQ0OCF1nFSQp99obz-2" target="xqILQ0OCF1nFSQp99obz-25">
          <mxGeometry width="50" height="50" relative="1" as="geometry">
            <mxPoint x="400" y="650" as="sourcePoint" />
            <mxPoint x="450" y="600" as="targetPoint" />
          </mxGeometry>
        </mxCell>
        <mxCell id="xqILQ0OCF1nFSQp99obz-45" value="" style="endArrow=classic;html=1;rounded=0;exitX=0.494;exitY=1.028;exitDx=0;exitDy=0;exitPerimeter=0;entryX=0.5;entryY=0;entryDx=0;entryDy=0;" edge="1" parent="1" source="xqILQ0OCF1nFSQp99obz-25" target="xqILQ0OCF1nFSQp99obz-27">
          <mxGeometry width="50" height="50" relative="1" as="geometry">
            <mxPoint x="400" y="730" as="sourcePoint" />
            <mxPoint x="450" y="680" as="targetPoint" />
          </mxGeometry>
        </mxCell>
        <mxCell id="xqILQ0OCF1nFSQp99obz-46" value="" style="endArrow=none;html=1;rounded=0;entryX=0.5;entryY=1;entryDx=0;entryDy=0;" edge="1" parent="1" target="xqILQ0OCF1nFSQp99obz-27">
          <mxGeometry width="50" height="50" relative="1" as="geometry">
            <mxPoint x="400" y="960" as="sourcePoint" />
            <mxPoint x="430" y="790" as="targetPoint" />
          </mxGeometry>
        </mxCell>
        <mxCell id="xqILQ0OCF1nFSQp99obz-47" value="" style="endArrow=none;html=1;rounded=0;exitX=1;exitY=0.5;exitDx=0;exitDy=0;" edge="1" parent="1" source="xqILQ0OCF1nFSQp99obz-33">
          <mxGeometry width="50" height="50" relative="1" as="geometry">
            <mxPoint x="420" y="850" as="sourcePoint" />
            <mxPoint x="400" y="850" as="targetPoint" />
          </mxGeometry>
        </mxCell>
        <mxCell id="xqILQ0OCF1nFSQp99obz-48" value="" style="endArrow=none;html=1;rounded=0;entryX=0;entryY=0.5;entryDx=0;entryDy=0;" edge="1" parent="1" target="xqILQ0OCF1nFSQp99obz-35">
          <mxGeometry width="50" height="50" relative="1" as="geometry">
            <mxPoint x="400" y="850" as="sourcePoint" />
            <mxPoint x="470" y="800" as="targetPoint" />
          </mxGeometry>
        </mxCell>
        <mxCell id="xqILQ0OCF1nFSQp99obz-49" value="" style="endArrow=none;html=1;rounded=0;exitX=1;exitY=0.5;exitDx=0;exitDy=0;" edge="1" parent="1" source="xqILQ0OCF1nFSQp99obz-30">
          <mxGeometry width="50" height="50" relative="1" as="geometry">
            <mxPoint x="420" y="900" as="sourcePoint" />
            <mxPoint x="400" y="960" as="targetPoint" />
          </mxGeometry>
        </mxCell>
        <mxCell id="xqILQ0OCF1nFSQp99obz-50" value="" style="endArrow=none;html=1;rounded=0;entryX=0;entryY=0.5;entryDx=0;entryDy=0;" edge="1" parent="1" target="xqILQ0OCF1nFSQp99obz-32">
          <mxGeometry width="50" height="50" relative="1" as="geometry">
            <mxPoint x="400" y="960" as="sourcePoint" />
            <mxPoint x="470" y="850" as="targetPoint" />
          </mxGeometry>
        </mxCell>
        <mxCell id="xqILQ0OCF1nFSQp99obz-51" value="" style="endArrow=classic;html=1;rounded=0;exitX=1;exitY=0.5;exitDx=0;exitDy=0;entryX=0;entryY=0.5;entryDx=0;entryDy=0;" edge="1" parent="1" source="xqILQ0OCF1nFSQp99obz-2" target="xqILQ0OCF1nFSQp99obz-37">
          <mxGeometry width="50" height="50" relative="1" as="geometry">
            <mxPoint x="610" y="610" as="sourcePoint" />
            <mxPoint x="660" y="560" as="targetPoint" />
          </mxGeometry>
        </mxCell>
        <mxCell id="xqILQ0OCF1nFSQp99obz-53" value="" style="endArrow=classic;html=1;rounded=0;exitX=1;exitY=0.5;exitDx=0;exitDy=0;entryX=0;entryY=0.5;entryDx=0;entryDy=0;" edge="1" parent="1" source="xqILQ0OCF1nFSQp99obz-37" target="xqILQ0OCF1nFSQp99obz-38">
          <mxGeometry width="50" height="50" relative="1" as="geometry">
            <mxPoint x="580" y="480" as="sourcePoint" />
            <mxPoint x="630" y="430" as="targetPoint" />
          </mxGeometry>
        </mxCell>
        <mxCell id="xqILQ0OCF1nFSQp99obz-54" value="" style="endArrow=none;html=1;rounded=0;exitX=1;exitY=0.5;exitDx=0;exitDy=0;" edge="1" parent="1" source="xqILQ0OCF1nFSQp99obz-38">
          <mxGeometry width="50" height="50" relative="1" as="geometry">
            <mxPoint x="820" y="480" as="sourcePoint" />
            <mxPoint x="1120" y="530" as="targetPoint" />
          </mxGeometry>
        </mxCell>
        <mxCell id="xqILQ0OCF1nFSQp99obz-55" value="" style="endArrow=none;html=1;rounded=0;entryX=0.5;entryY=1;entryDx=0;entryDy=0;" edge="1" parent="1" target="xqILQ0OCF1nFSQp99obz-42">
          <mxGeometry width="50" height="50" relative="1" as="geometry">
            <mxPoint x="960" y="530" as="sourcePoint" />
            <mxPoint x="990" y="430" as="targetPoint" />
          </mxGeometry>
        </mxCell>
        <mxCell id="xqILQ0OCF1nFSQp99obz-56" value="" style="endArrow=none;html=1;rounded=0;entryX=0.5;entryY=1;entryDx=0;entryDy=0;" edge="1" parent="1" target="xqILQ0OCF1nFSQp99obz-41">
          <mxGeometry width="50" height="50" relative="1" as="geometry">
            <mxPoint x="1120" y="530" as="sourcePoint" />
            <mxPoint x="1119" y="433" as="targetPoint" />
          </mxGeometry>
        </mxCell>
        <mxCell id="xqILQ0OCF1nFSQp99obz-57" value="" style="endArrow=none;html=1;rounded=0;exitX=0.5;exitY=0;exitDx=0;exitDy=0;" edge="1" parent="1" source="xqILQ0OCF1nFSQp99obz-39">
          <mxGeometry width="50" height="50" relative="1" as="geometry">
            <mxPoint x="1060" y="610" as="sourcePoint" />
            <mxPoint x="1120" y="530" as="targetPoint" />
          </mxGeometry>
        </mxCell>
        <mxCell id="xqILQ0OCF1nFSQp99obz-58" value="" style="endArrow=none;html=1;rounded=0;exitX=0.5;exitY=0;exitDx=0;exitDy=0;" edge="1" parent="1" source="xqILQ0OCF1nFSQp99obz-40">
          <mxGeometry width="50" height="50" relative="1" as="geometry">
            <mxPoint x="1060" y="610" as="sourcePoint" />
            <mxPoint x="960" y="530" as="targetPoint" />
          </mxGeometry>
        </mxCell>
      </root>
    </mxGraphModel>
  </diagram>
</mxfile>
